<mxfile host="app.diagrams.net" agent="Mozilla/5.0 (Macintosh; Intel Mac OS X 10_15_7) AppleWebKit/605.1.15 (KHTML, like Gecko) Version/18.1 Safari/605.1.15" version="24.8.3">
  <diagram name="Page-1" id="Oc6mzuHaexsoy2SZjhDX">
    <mxGraphModel dx="1822" dy="664" grid="1" gridSize="10" guides="1" tooltips="1" connect="1" arrows="1" fold="1" page="1" pageScale="1" pageWidth="827" pageHeight="1169" math="0" shadow="0">
      <root>
        <mxCell id="0" />
        <mxCell id="1" parent="0" />
        <mxCell id="stg8ZOWepQ2pk7FR4M00-12" value="" style="edgeStyle=orthogonalEdgeStyle;rounded=1;orthogonalLoop=1;jettySize=auto;html=1;labelBackgroundColor=none;fontColor=default;strokeColor=#182E3E;" parent="1" source="stg8ZOWepQ2pk7FR4M00-1" target="stg8ZOWepQ2pk7FR4M00-8" edge="1">
          <mxGeometry relative="1" as="geometry" />
        </mxCell>
        <mxCell id="stg8ZOWepQ2pk7FR4M00-1" value="Web Scrapping and Data collection" style="rounded=1;whiteSpace=wrap;html=1;labelBackgroundColor=none;fillColor=#F5AB50;strokeColor=#909090;fontColor=#1A1A1A;" parent="1" vertex="1">
          <mxGeometry x="-120" y="410" width="120" height="60" as="geometry" />
        </mxCell>
        <mxCell id="stg8ZOWepQ2pk7FR4M00-4" style="edgeStyle=orthogonalEdgeStyle;rounded=1;orthogonalLoop=1;jettySize=auto;html=1;entryX=0;entryY=0.5;entryDx=0;entryDy=0;labelBackgroundColor=none;fontColor=default;strokeColor=#182E3E;" parent="1" source="stg8ZOWepQ2pk7FR4M00-2" target="stg8ZOWepQ2pk7FR4M00-1" edge="1">
          <mxGeometry relative="1" as="geometry" />
        </mxCell>
        <mxCell id="stg8ZOWepQ2pk7FR4M00-2" value="Weather Data" style="rounded=1;whiteSpace=wrap;html=1;labelBackgroundColor=none;fillColor=#F5AB50;strokeColor=#909090;fontColor=#1A1A1A;" parent="1" vertex="1">
          <mxGeometry x="-280" y="320" width="120" height="60" as="geometry" />
        </mxCell>
        <mxCell id="stg8ZOWepQ2pk7FR4M00-5" style="edgeStyle=orthogonalEdgeStyle;rounded=1;orthogonalLoop=1;jettySize=auto;html=1;labelBackgroundColor=none;fontColor=default;strokeColor=#182E3E;" parent="1" source="stg8ZOWepQ2pk7FR4M00-3" edge="1">
          <mxGeometry relative="1" as="geometry">
            <mxPoint x="-120" y="440" as="targetPoint" />
            <Array as="points">
              <mxPoint x="-140" y="530" />
              <mxPoint x="-140" y="440" />
            </Array>
          </mxGeometry>
        </mxCell>
        <mxCell id="stg8ZOWepQ2pk7FR4M00-3" value="Historic Train Delay Data" style="rounded=1;whiteSpace=wrap;html=1;labelBackgroundColor=none;fillColor=#F5AB50;strokeColor=#909090;fontColor=#1A1A1A;" parent="1" vertex="1">
          <mxGeometry x="-280" y="500" width="120" height="60" as="geometry" />
        </mxCell>
        <mxCell id="stg8ZOWepQ2pk7FR4M00-7" value="" style="edgeStyle=orthogonalEdgeStyle;rounded=1;orthogonalLoop=1;jettySize=auto;html=1;labelBackgroundColor=none;fontColor=default;strokeColor=#182E3E;" parent="1" source="stg8ZOWepQ2pk7FR4M00-6" target="stg8ZOWepQ2pk7FR4M00-1" edge="1">
          <mxGeometry relative="1" as="geometry" />
        </mxCell>
        <mxCell id="stg8ZOWepQ2pk7FR4M00-6" value="Train Schedule Data" style="rounded=1;whiteSpace=wrap;html=1;labelBackgroundColor=none;fillColor=#F5AB50;strokeColor=#909090;fontColor=#1A1A1A;" parent="1" vertex="1">
          <mxGeometry x="-280" y="410" width="120" height="60" as="geometry" />
        </mxCell>
        <mxCell id="stg8ZOWepQ2pk7FR4M00-13" value="" style="edgeStyle=orthogonalEdgeStyle;rounded=1;orthogonalLoop=1;jettySize=auto;html=1;labelBackgroundColor=none;fontColor=default;strokeColor=#182E3E;" parent="1" source="stg8ZOWepQ2pk7FR4M00-8" target="stg8ZOWepQ2pk7FR4M00-10" edge="1">
          <mxGeometry relative="1" as="geometry" />
        </mxCell>
        <mxCell id="stg8ZOWepQ2pk7FR4M00-14" style="edgeStyle=orthogonalEdgeStyle;rounded=1;orthogonalLoop=1;jettySize=auto;html=1;entryX=0;entryY=0.5;entryDx=0;entryDy=0;labelBackgroundColor=none;fontColor=default;strokeColor=#182E3E;" parent="1" source="stg8ZOWepQ2pk7FR4M00-8" target="stg8ZOWepQ2pk7FR4M00-9" edge="1">
          <mxGeometry relative="1" as="geometry" />
        </mxCell>
        <mxCell id="stg8ZOWepQ2pk7FR4M00-15" style="edgeStyle=orthogonalEdgeStyle;rounded=1;orthogonalLoop=1;jettySize=auto;html=1;entryX=0;entryY=0.5;entryDx=0;entryDy=0;labelBackgroundColor=none;fontColor=default;strokeColor=#182E3E;" parent="1" source="stg8ZOWepQ2pk7FR4M00-8" target="stg8ZOWepQ2pk7FR4M00-11" edge="1">
          <mxGeometry relative="1" as="geometry" />
        </mxCell>
        <mxCell id="stg8ZOWepQ2pk7FR4M00-8" value="Data&lt;div&gt;Preprocessing&amp;nbsp;&lt;/div&gt;" style="rounded=1;whiteSpace=wrap;html=1;labelBackgroundColor=none;fillColor=#F5AB50;strokeColor=#909090;fontColor=#1A1A1A;" parent="1" vertex="1">
          <mxGeometry x="40" y="410" width="120" height="60" as="geometry" />
        </mxCell>
        <mxCell id="stg8ZOWepQ2pk7FR4M00-21" style="edgeStyle=orthogonalEdgeStyle;rounded=1;orthogonalLoop=1;jettySize=auto;html=1;entryX=1;entryY=0.5;entryDx=0;entryDy=0;labelBackgroundColor=none;fontColor=default;strokeColor=#182E3E;" parent="1" source="stg8ZOWepQ2pk7FR4M00-9" target="stg8ZOWepQ2pk7FR4M00-16" edge="1">
          <mxGeometry relative="1" as="geometry">
            <Array as="points">
              <mxPoint x="520" y="360" />
              <mxPoint x="520" y="614" />
            </Array>
          </mxGeometry>
        </mxCell>
        <mxCell id="stg8ZOWepQ2pk7FR4M00-9" value="Data Cleaning" style="rounded=1;whiteSpace=wrap;html=1;labelBackgroundColor=none;fillColor=#F5AB50;strokeColor=#909090;fontColor=#1A1A1A;" parent="1" vertex="1">
          <mxGeometry x="360" y="330" width="120" height="60" as="geometry" />
        </mxCell>
        <mxCell id="stg8ZOWepQ2pk7FR4M00-22" style="edgeStyle=orthogonalEdgeStyle;rounded=1;orthogonalLoop=1;jettySize=auto;html=1;entryX=1;entryY=0.5;entryDx=0;entryDy=0;labelBackgroundColor=none;fontColor=default;strokeColor=#182E3E;" parent="1" source="stg8ZOWepQ2pk7FR4M00-10" target="stg8ZOWepQ2pk7FR4M00-16" edge="1">
          <mxGeometry relative="1" as="geometry">
            <Array as="points">
              <mxPoint x="520" y="440" />
              <mxPoint x="520" y="614" />
            </Array>
          </mxGeometry>
        </mxCell>
        <mxCell id="stg8ZOWepQ2pk7FR4M00-10" value="Feature&lt;div&gt;&amp;nbsp;Engineering&amp;nbsp;&lt;/div&gt;" style="rounded=1;whiteSpace=wrap;html=1;labelBackgroundColor=none;fillColor=#F5AB50;strokeColor=#909090;fontColor=#1A1A1A;" parent="1" vertex="1">
          <mxGeometry x="360" y="410" width="120" height="60" as="geometry" />
        </mxCell>
        <mxCell id="stg8ZOWepQ2pk7FR4M00-23" style="edgeStyle=orthogonalEdgeStyle;rounded=1;orthogonalLoop=1;jettySize=auto;html=1;entryX=1;entryY=0.5;entryDx=0;entryDy=0;labelBackgroundColor=none;fontColor=default;strokeColor=#182E3E;" parent="1" source="stg8ZOWepQ2pk7FR4M00-11" target="stg8ZOWepQ2pk7FR4M00-16" edge="1">
          <mxGeometry relative="1" as="geometry">
            <Array as="points">
              <mxPoint x="520" y="520" />
              <mxPoint x="520" y="614" />
            </Array>
          </mxGeometry>
        </mxCell>
        <mxCell id="stg8ZOWepQ2pk7FR4M00-11" value="Feature Scaling" style="rounded=1;whiteSpace=wrap;html=1;labelBackgroundColor=none;fillColor=#F5AB50;strokeColor=#909090;fontColor=#1A1A1A;" parent="1" vertex="1">
          <mxGeometry x="360" y="490" width="120" height="60" as="geometry" />
        </mxCell>
        <mxCell id="stg8ZOWepQ2pk7FR4M00-26" style="edgeStyle=orthogonalEdgeStyle;rounded=1;orthogonalLoop=1;jettySize=auto;html=1;entryX=1;entryY=0.5;entryDx=0;entryDy=0;labelBackgroundColor=none;fontColor=default;strokeColor=#182E3E;" parent="1" source="stg8ZOWepQ2pk7FR4M00-16" target="stg8ZOWepQ2pk7FR4M00-20" edge="1">
          <mxGeometry relative="1" as="geometry">
            <Array as="points">
              <mxPoint x="440" y="700" />
            </Array>
          </mxGeometry>
        </mxCell>
        <mxCell id="stg8ZOWepQ2pk7FR4M00-41" style="edgeStyle=orthogonalEdgeStyle;rounded=1;orthogonalLoop=1;jettySize=auto;html=1;entryX=1;entryY=0.5;entryDx=0;entryDy=0;labelBackgroundColor=none;fontColor=default;strokeColor=#182E3E;" parent="1" source="stg8ZOWepQ2pk7FR4M00-16" target="stg8ZOWepQ2pk7FR4M00-32" edge="1">
          <mxGeometry relative="1" as="geometry">
            <Array as="points">
              <mxPoint x="440" y="840" />
            </Array>
          </mxGeometry>
        </mxCell>
        <mxCell id="stg8ZOWepQ2pk7FR4M00-43" style="edgeStyle=orthogonalEdgeStyle;rounded=1;orthogonalLoop=1;jettySize=auto;html=1;entryX=1;entryY=0.5;entryDx=0;entryDy=0;labelBackgroundColor=none;fontColor=default;strokeColor=#182E3E;" parent="1" source="stg8ZOWepQ2pk7FR4M00-16" target="stg8ZOWepQ2pk7FR4M00-42" edge="1">
          <mxGeometry relative="1" as="geometry">
            <Array as="points">
              <mxPoint x="440" y="990" />
            </Array>
          </mxGeometry>
        </mxCell>
        <mxCell id="stg8ZOWepQ2pk7FR4M00-16" value="Modeling" style="rounded=1;whiteSpace=wrap;html=1;labelBackgroundColor=none;fillColor=#F5AB50;strokeColor=#909090;fontColor=#1A1A1A;" parent="1" vertex="1">
          <mxGeometry x="354" y="584" width="120" height="56" as="geometry" />
        </mxCell>
        <mxCell id="stg8ZOWepQ2pk7FR4M00-27" style="edgeStyle=orthogonalEdgeStyle;rounded=1;orthogonalLoop=1;jettySize=auto;html=1;entryX=1;entryY=0.5;entryDx=0;entryDy=0;labelBackgroundColor=none;fontColor=default;strokeColor=#182E3E;" parent="1" source="stg8ZOWepQ2pk7FR4M00-20" target="stg8ZOWepQ2pk7FR4M00-24" edge="1">
          <mxGeometry relative="1" as="geometry" />
        </mxCell>
        <mxCell id="stg8ZOWepQ2pk7FR4M00-28" style="edgeStyle=orthogonalEdgeStyle;rounded=1;orthogonalLoop=1;jettySize=auto;html=1;entryX=1;entryY=0.5;entryDx=0;entryDy=0;labelBackgroundColor=none;fontColor=default;strokeColor=#182E3E;" parent="1" source="stg8ZOWepQ2pk7FR4M00-20" target="stg8ZOWepQ2pk7FR4M00-25" edge="1">
          <mxGeometry relative="1" as="geometry" />
        </mxCell>
        <mxCell id="stg8ZOWepQ2pk7FR4M00-20" value="Time series Models" style="rounded=1;whiteSpace=wrap;html=1;labelBackgroundColor=none;fillColor=#F5AB50;strokeColor=#909090;fontColor=#1A1A1A;" parent="1" vertex="1">
          <mxGeometry x="300" y="670" width="120" height="60" as="geometry" />
        </mxCell>
        <mxCell id="30z2oHUKhD7mHLdZUFcd-13" style="edgeStyle=none;curved=1;rounded=1;orthogonalLoop=1;jettySize=auto;html=1;entryX=1;entryY=0.5;entryDx=0;entryDy=0;fontSize=12;startSize=8;endSize=8;labelBackgroundColor=none;fontColor=default;strokeColor=#182E3E;" parent="1" source="stg8ZOWepQ2pk7FR4M00-24" target="stg8ZOWepQ2pk7FR4M00-52" edge="1">
          <mxGeometry relative="1" as="geometry">
            <Array as="points">
              <mxPoint x="-50" y="660" />
            </Array>
          </mxGeometry>
        </mxCell>
        <mxCell id="stg8ZOWepQ2pk7FR4M00-24" value="ARMA" style="rounded=1;whiteSpace=wrap;html=1;labelBackgroundColor=none;fillColor=#F5AB50;strokeColor=#909090;fontColor=#1A1A1A;" parent="1" vertex="1">
          <mxGeometry x="140" y="584" width="120" height="60" as="geometry" />
        </mxCell>
        <mxCell id="30z2oHUKhD7mHLdZUFcd-14" style="edgeStyle=none;curved=1;rounded=1;orthogonalLoop=1;jettySize=auto;html=1;entryX=1;entryY=0.5;entryDx=0;entryDy=0;fontSize=12;startSize=8;endSize=8;labelBackgroundColor=none;fontColor=default;strokeColor=#182E3E;" parent="1" source="stg8ZOWepQ2pk7FR4M00-25" target="stg8ZOWepQ2pk7FR4M00-52" edge="1">
          <mxGeometry relative="1" as="geometry">
            <Array as="points">
              <mxPoint x="-20" y="690" />
            </Array>
          </mxGeometry>
        </mxCell>
        <mxCell id="stg8ZOWepQ2pk7FR4M00-25" value="ARIMA" style="rounded=1;whiteSpace=wrap;html=1;labelBackgroundColor=none;fillColor=#F5AB50;strokeColor=#909090;fontColor=#1A1A1A;" parent="1" vertex="1">
          <mxGeometry x="140" y="664" width="120" height="60" as="geometry" />
        </mxCell>
        <mxCell id="30z2oHUKhD7mHLdZUFcd-2" style="edgeStyle=none;curved=1;rounded=1;orthogonalLoop=1;jettySize=auto;html=1;entryX=1;entryY=0.5;entryDx=0;entryDy=0;fontSize=12;startSize=8;endSize=8;labelBackgroundColor=none;fontColor=default;strokeColor=#182E3E;" parent="1" source="stg8ZOWepQ2pk7FR4M00-32" target="stg8ZOWepQ2pk7FR4M00-33" edge="1">
          <mxGeometry relative="1" as="geometry" />
        </mxCell>
        <mxCell id="30z2oHUKhD7mHLdZUFcd-9" style="edgeStyle=none;curved=1;rounded=1;orthogonalLoop=1;jettySize=auto;html=1;entryX=1;entryY=0.5;entryDx=0;entryDy=0;fontSize=12;startSize=8;endSize=8;labelBackgroundColor=none;fontColor=default;strokeColor=#182E3E;" parent="1" source="stg8ZOWepQ2pk7FR4M00-32" target="stg8ZOWepQ2pk7FR4M00-34" edge="1">
          <mxGeometry relative="1" as="geometry">
            <Array as="points">
              <mxPoint x="130" y="870" />
            </Array>
          </mxGeometry>
        </mxCell>
        <mxCell id="stg8ZOWepQ2pk7FR4M00-32" value="Machine Learning Models" style="rounded=1;whiteSpace=wrap;html=1;labelBackgroundColor=none;fillColor=#F5AB50;strokeColor=#909090;fontColor=#1A1A1A;" parent="1" vertex="1">
          <mxGeometry x="300" y="810" width="120" height="60" as="geometry" />
        </mxCell>
        <mxCell id="30z2oHUKhD7mHLdZUFcd-11" style="edgeStyle=none;curved=1;rounded=1;orthogonalLoop=1;jettySize=auto;html=1;entryX=1;entryY=0.5;entryDx=0;entryDy=0;fontSize=12;startSize=8;endSize=8;labelBackgroundColor=none;fontColor=default;strokeColor=#182E3E;" parent="1" source="stg8ZOWepQ2pk7FR4M00-33" target="stg8ZOWepQ2pk7FR4M00-52" edge="1">
          <mxGeometry relative="1" as="geometry" />
        </mxCell>
        <mxCell id="stg8ZOWepQ2pk7FR4M00-33" value="Decision Trees" style="rounded=1;whiteSpace=wrap;html=1;labelBackgroundColor=none;fillColor=#F5AB50;strokeColor=#909090;fontColor=#1A1A1A;" parent="1" vertex="1">
          <mxGeometry x="-10" y="810" width="120" height="60" as="geometry" />
        </mxCell>
        <mxCell id="30z2oHUKhD7mHLdZUFcd-12" style="edgeStyle=none;curved=1;rounded=1;orthogonalLoop=1;jettySize=auto;html=1;entryX=1;entryY=0.5;entryDx=0;entryDy=0;fontSize=12;startSize=8;endSize=8;labelBackgroundColor=none;fontColor=default;strokeColor=#182E3E;" parent="1" source="stg8ZOWepQ2pk7FR4M00-34" target="stg8ZOWepQ2pk7FR4M00-52" edge="1">
          <mxGeometry relative="1" as="geometry" />
        </mxCell>
        <mxCell id="stg8ZOWepQ2pk7FR4M00-34" value="Random Forest" style="rounded=1;whiteSpace=wrap;html=1;labelBackgroundColor=none;fillColor=#F5AB50;strokeColor=#909090;fontColor=#1A1A1A;" parent="1" vertex="1">
          <mxGeometry x="-10" y="890" width="120" height="60" as="geometry" />
        </mxCell>
        <mxCell id="30z2oHUKhD7mHLdZUFcd-10" style="edgeStyle=none;curved=1;rounded=1;orthogonalLoop=1;jettySize=auto;html=1;entryX=1;entryY=0.5;entryDx=0;entryDy=0;fontSize=12;startSize=8;endSize=8;labelBackgroundColor=none;fontColor=default;strokeColor=#182E3E;" parent="1" source="stg8ZOWepQ2pk7FR4M00-36" target="stg8ZOWepQ2pk7FR4M00-52" edge="1">
          <mxGeometry relative="1" as="geometry" />
        </mxCell>
        <mxCell id="stg8ZOWepQ2pk7FR4M00-36" value="XGBoost" style="rounded=1;whiteSpace=wrap;html=1;labelBackgroundColor=none;fillColor=#F5AB50;strokeColor=#909090;fontColor=#1A1A1A;" parent="1" vertex="1">
          <mxGeometry x="-10" y="730" width="120" height="60" as="geometry" />
        </mxCell>
        <mxCell id="stg8ZOWepQ2pk7FR4M00-49" value="" style="edgeStyle=orthogonalEdgeStyle;rounded=1;orthogonalLoop=1;jettySize=auto;html=1;labelBackgroundColor=none;fontColor=default;strokeColor=#182E3E;" parent="1" source="stg8ZOWepQ2pk7FR4M00-42" target="stg8ZOWepQ2pk7FR4M00-45" edge="1">
          <mxGeometry relative="1" as="geometry" />
        </mxCell>
        <mxCell id="stg8ZOWepQ2pk7FR4M00-50" style="edgeStyle=orthogonalEdgeStyle;rounded=1;orthogonalLoop=1;jettySize=auto;html=1;entryX=1;entryY=0.5;entryDx=0;entryDy=0;labelBackgroundColor=none;fontColor=default;strokeColor=#182E3E;" parent="1" source="stg8ZOWepQ2pk7FR4M00-42" target="stg8ZOWepQ2pk7FR4M00-44" edge="1">
          <mxGeometry relative="1" as="geometry" />
        </mxCell>
        <mxCell id="stg8ZOWepQ2pk7FR4M00-51" style="edgeStyle=orthogonalEdgeStyle;rounded=1;orthogonalLoop=1;jettySize=auto;html=1;entryX=1;entryY=0.5;entryDx=0;entryDy=0;labelBackgroundColor=none;fontColor=default;strokeColor=#182E3E;" parent="1" source="stg8ZOWepQ2pk7FR4M00-42" target="stg8ZOWepQ2pk7FR4M00-46" edge="1">
          <mxGeometry relative="1" as="geometry" />
        </mxCell>
        <mxCell id="stg8ZOWepQ2pk7FR4M00-42" value="Deep Learning Models" style="rounded=1;whiteSpace=wrap;html=1;labelBackgroundColor=none;fillColor=#F5AB50;strokeColor=#909090;fontColor=#1A1A1A;" parent="1" vertex="1">
          <mxGeometry x="300" y="960" width="120" height="60" as="geometry" />
        </mxCell>
        <mxCell id="30z2oHUKhD7mHLdZUFcd-15" style="edgeStyle=none;curved=1;rounded=1;orthogonalLoop=1;jettySize=auto;html=1;entryX=1;entryY=0.5;entryDx=0;entryDy=0;fontSize=12;startSize=8;endSize=8;exitX=0;exitY=0.5;exitDx=0;exitDy=0;labelBackgroundColor=none;fontColor=default;strokeColor=#182E3E;" parent="1" source="stg8ZOWepQ2pk7FR4M00-44" target="stg8ZOWepQ2pk7FR4M00-52" edge="1">
          <mxGeometry relative="1" as="geometry">
            <mxPoint x="140" y="955" as="sourcePoint" />
            <Array as="points">
              <mxPoint x="-20" y="1010" />
            </Array>
          </mxGeometry>
        </mxCell>
        <mxCell id="stg8ZOWepQ2pk7FR4M00-44" value="LSTM and Bi LSTM" style="rounded=1;whiteSpace=wrap;html=1;labelBackgroundColor=none;fillColor=#F5AB50;strokeColor=#909090;fontColor=#1A1A1A;" parent="1" vertex="1">
          <mxGeometry x="140" y="950" width="120" height="60" as="geometry" />
        </mxCell>
        <mxCell id="30z2oHUKhD7mHLdZUFcd-16" style="edgeStyle=none;curved=1;rounded=1;orthogonalLoop=1;jettySize=auto;html=1;entryX=1;entryY=0.5;entryDx=0;entryDy=0;fontSize=12;startSize=8;endSize=8;labelBackgroundColor=none;fontColor=default;strokeColor=#182E3E;" parent="1" source="stg8ZOWepQ2pk7FR4M00-45" target="stg8ZOWepQ2pk7FR4M00-52" edge="1">
          <mxGeometry relative="1" as="geometry">
            <Array as="points">
              <mxPoint x="-30" y="990" />
            </Array>
          </mxGeometry>
        </mxCell>
        <mxCell id="stg8ZOWepQ2pk7FR4M00-45" value="RNN and Bi RNN" style="rounded=1;whiteSpace=wrap;html=1;labelBackgroundColor=none;fillColor=#F5AB50;strokeColor=#909090;fontColor=#1A1A1A;" parent="1" vertex="1">
          <mxGeometry x="140" y="1020" width="120" height="60" as="geometry" />
        </mxCell>
        <mxCell id="30z2oHUKhD7mHLdZUFcd-17" style="edgeStyle=none;curved=1;rounded=1;orthogonalLoop=1;jettySize=auto;html=1;entryX=1;entryY=0.5;entryDx=0;entryDy=0;fontSize=12;startSize=8;endSize=8;labelBackgroundColor=none;fontColor=default;strokeColor=#182E3E;" parent="1" source="stg8ZOWepQ2pk7FR4M00-46" target="stg8ZOWepQ2pk7FR4M00-52" edge="1">
          <mxGeometry relative="1" as="geometry">
            <Array as="points">
              <mxPoint x="-20" y="1010" />
            </Array>
          </mxGeometry>
        </mxCell>
        <mxCell id="stg8ZOWepQ2pk7FR4M00-46" value="Stacking&amp;nbsp;&lt;div&gt;Regression&amp;nbsp;&lt;/div&gt;" style="rounded=1;whiteSpace=wrap;html=1;labelBackgroundColor=none;fillColor=#F5AB50;strokeColor=#909090;fontColor=#1A1A1A;" parent="1" vertex="1">
          <mxGeometry x="140" y="1090" width="120" height="60" as="geometry" />
        </mxCell>
        <mxCell id="stg8ZOWepQ2pk7FR4M00-59" style="edgeStyle=orthogonalEdgeStyle;rounded=1;orthogonalLoop=1;jettySize=auto;html=1;entryX=1;entryY=0.5;entryDx=0;entryDy=0;labelBackgroundColor=none;fontColor=default;strokeColor=#182E3E;" parent="1" source="stg8ZOWepQ2pk7FR4M00-52" target="stg8ZOWepQ2pk7FR4M00-54" edge="1">
          <mxGeometry relative="1" as="geometry" />
        </mxCell>
        <mxCell id="stg8ZOWepQ2pk7FR4M00-60" style="edgeStyle=orthogonalEdgeStyle;rounded=1;orthogonalLoop=1;jettySize=auto;html=1;entryX=1;entryY=0.5;entryDx=0;entryDy=0;labelBackgroundColor=none;fontColor=default;strokeColor=#182E3E;" parent="1" source="stg8ZOWepQ2pk7FR4M00-52" target="stg8ZOWepQ2pk7FR4M00-55" edge="1">
          <mxGeometry relative="1" as="geometry" />
        </mxCell>
        <mxCell id="stg8ZOWepQ2pk7FR4M00-52" value="Evaluation And Optimisation" style="rounded=1;whiteSpace=wrap;html=1;labelBackgroundColor=none;fillColor=#F5AB50;strokeColor=#909090;fontColor=#1A1A1A;" parent="1" vertex="1">
          <mxGeometry x="-260" y="810" width="120" height="60" as="geometry" />
        </mxCell>
        <mxCell id="stg8ZOWepQ2pk7FR4M00-62" style="edgeStyle=orthogonalEdgeStyle;rounded=1;orthogonalLoop=1;jettySize=auto;html=1;entryX=0;entryY=0.5;entryDx=0;entryDy=0;labelBackgroundColor=none;fontColor=default;strokeColor=#182E3E;" parent="1" source="stg8ZOWepQ2pk7FR4M00-54" target="stg8ZOWepQ2pk7FR4M00-61" edge="1">
          <mxGeometry relative="1" as="geometry">
            <Array as="points">
              <mxPoint x="-500" y="840" />
              <mxPoint x="-500" y="1020" />
            </Array>
          </mxGeometry>
        </mxCell>
        <mxCell id="stg8ZOWepQ2pk7FR4M00-54" value="Metrics&amp;nbsp;" style="rounded=1;whiteSpace=wrap;html=1;labelBackgroundColor=none;fillColor=#F5AB50;strokeColor=#909090;fontColor=#1A1A1A;" parent="1" vertex="1">
          <mxGeometry x="-430" y="810" width="120" height="60" as="geometry" />
        </mxCell>
        <mxCell id="stg8ZOWepQ2pk7FR4M00-63" style="edgeStyle=orthogonalEdgeStyle;rounded=1;orthogonalLoop=1;jettySize=auto;html=1;entryX=0;entryY=0.5;entryDx=0;entryDy=0;labelBackgroundColor=none;fontColor=default;strokeColor=#182E3E;" parent="1" source="stg8ZOWepQ2pk7FR4M00-55" target="stg8ZOWepQ2pk7FR4M00-61" edge="1">
          <mxGeometry relative="1" as="geometry">
            <Array as="points">
              <mxPoint x="-500" y="920" />
              <mxPoint x="-500" y="1020" />
            </Array>
          </mxGeometry>
        </mxCell>
        <mxCell id="stg8ZOWepQ2pk7FR4M00-55" value="Cross Validation and tuning" style="rounded=1;whiteSpace=wrap;html=1;labelBackgroundColor=none;fillColor=#F5AB50;strokeColor=#909090;fontColor=#1A1A1A;" parent="1" vertex="1">
          <mxGeometry x="-430" y="890" width="120" height="60" as="geometry" />
        </mxCell>
        <mxCell id="stg8ZOWepQ2pk7FR4M00-61" value="Prediction" style="rounded=1;whiteSpace=wrap;html=1;labelBackgroundColor=none;fillColor=#F5AB50;strokeColor=#909090;fontColor=#1A1A1A;" parent="1" vertex="1">
          <mxGeometry x="-280" y="990" width="120" height="60" as="geometry" />
        </mxCell>
        <mxCell id="30z2oHUKhD7mHLdZUFcd-1" style="edgeStyle=none;curved=1;rounded=1;orthogonalLoop=1;jettySize=auto;html=1;entryX=0;entryY=0.5;entryDx=0;entryDy=0;fontSize=12;startSize=8;endSize=8;labelBackgroundColor=none;fontColor=default;strokeColor=#182E3E;" parent="1" source="stg8ZOWepQ2pk7FR4M00-32" target="stg8ZOWepQ2pk7FR4M00-32" edge="1">
          <mxGeometry relative="1" as="geometry" />
        </mxCell>
        <mxCell id="30z2oHUKhD7mHLdZUFcd-8" style="edgeStyle=none;curved=1;rounded=1;orthogonalLoop=1;jettySize=auto;html=1;entryX=0.978;entryY=0.537;entryDx=0;entryDy=0;entryPerimeter=0;fontSize=12;startSize=8;endSize=8;labelBackgroundColor=none;fontColor=default;strokeColor=#182E3E;" parent="1" source="stg8ZOWepQ2pk7FR4M00-32" target="stg8ZOWepQ2pk7FR4M00-36" edge="1">
          <mxGeometry relative="1" as="geometry">
            <Array as="points">
              <mxPoint x="180" y="810" />
            </Array>
          </mxGeometry>
        </mxCell>
        <mxCell id="30z2oHUKhD7mHLdZUFcd-18" value="" style="edgeStyle=orthogonalEdgeStyle;rounded=1;orthogonalLoop=1;jettySize=auto;html=1;labelBackgroundColor=none;fontColor=default;strokeColor=#182E3E;" parent="1" source="30z2oHUKhD7mHLdZUFcd-19" target="30z2oHUKhD7mHLdZUFcd-29" edge="1">
          <mxGeometry relative="1" as="geometry" />
        </mxCell>
        <mxCell id="30z2oHUKhD7mHLdZUFcd-19" value="Web Scrapping and Data collection" style="rounded=1;whiteSpace=wrap;html=1;labelBackgroundColor=none;fillColor=#F5AB50;strokeColor=#909090;fontColor=#1A1A1A;" parent="1" vertex="1">
          <mxGeometry x="1280" y="390" width="120" height="60" as="geometry" />
        </mxCell>
        <mxCell id="30z2oHUKhD7mHLdZUFcd-20" style="edgeStyle=orthogonalEdgeStyle;rounded=1;orthogonalLoop=1;jettySize=auto;html=1;entryX=0;entryY=0.5;entryDx=0;entryDy=0;labelBackgroundColor=none;fontColor=default;strokeColor=#182E3E;" parent="1" source="30z2oHUKhD7mHLdZUFcd-21" target="30z2oHUKhD7mHLdZUFcd-19" edge="1">
          <mxGeometry relative="1" as="geometry" />
        </mxCell>
        <mxCell id="30z2oHUKhD7mHLdZUFcd-21" value="Weather Data" style="rounded=1;whiteSpace=wrap;html=1;labelBackgroundColor=none;fillColor=#F5AB50;strokeColor=#909090;fontColor=#1A1A1A;" parent="1" vertex="1">
          <mxGeometry x="1120" y="300" width="120" height="60" as="geometry" />
        </mxCell>
        <mxCell id="30z2oHUKhD7mHLdZUFcd-22" style="edgeStyle=orthogonalEdgeStyle;rounded=1;orthogonalLoop=1;jettySize=auto;html=1;labelBackgroundColor=none;fontColor=default;strokeColor=#182E3E;" parent="1" source="30z2oHUKhD7mHLdZUFcd-23" edge="1">
          <mxGeometry relative="1" as="geometry">
            <mxPoint x="1280" y="420" as="targetPoint" />
            <Array as="points">
              <mxPoint x="1260" y="510" />
              <mxPoint x="1260" y="420" />
            </Array>
          </mxGeometry>
        </mxCell>
        <mxCell id="30z2oHUKhD7mHLdZUFcd-23" value="Historic Train Delay Data" style="rounded=1;whiteSpace=wrap;html=1;labelBackgroundColor=none;fillColor=#F5AB50;strokeColor=#909090;fontColor=#1A1A1A;" parent="1" vertex="1">
          <mxGeometry x="1120" y="480" width="120" height="60" as="geometry" />
        </mxCell>
        <mxCell id="30z2oHUKhD7mHLdZUFcd-24" value="" style="edgeStyle=orthogonalEdgeStyle;rounded=1;orthogonalLoop=1;jettySize=auto;html=1;labelBackgroundColor=none;fontColor=default;strokeColor=#182E3E;" parent="1" source="30z2oHUKhD7mHLdZUFcd-25" target="30z2oHUKhD7mHLdZUFcd-19" edge="1">
          <mxGeometry relative="1" as="geometry" />
        </mxCell>
        <mxCell id="30z2oHUKhD7mHLdZUFcd-25" value="Train Schedule Data" style="rounded=1;whiteSpace=wrap;html=1;labelBackgroundColor=none;fillColor=#F5AB50;strokeColor=#909090;fontColor=#1A1A1A;" parent="1" vertex="1">
          <mxGeometry x="1120" y="390" width="120" height="60" as="geometry" />
        </mxCell>
        <mxCell id="30z2oHUKhD7mHLdZUFcd-26" value="" style="edgeStyle=orthogonalEdgeStyle;rounded=1;orthogonalLoop=1;jettySize=auto;html=1;labelBackgroundColor=none;fontColor=default;strokeColor=#182E3E;" parent="1" source="30z2oHUKhD7mHLdZUFcd-29" target="30z2oHUKhD7mHLdZUFcd-33" edge="1">
          <mxGeometry relative="1" as="geometry" />
        </mxCell>
        <mxCell id="30z2oHUKhD7mHLdZUFcd-27" style="edgeStyle=orthogonalEdgeStyle;rounded=1;orthogonalLoop=1;jettySize=auto;html=1;entryX=0;entryY=0.5;entryDx=0;entryDy=0;labelBackgroundColor=none;fontColor=default;strokeColor=#182E3E;" parent="1" source="30z2oHUKhD7mHLdZUFcd-29" target="30z2oHUKhD7mHLdZUFcd-31" edge="1">
          <mxGeometry relative="1" as="geometry" />
        </mxCell>
        <mxCell id="30z2oHUKhD7mHLdZUFcd-28" style="edgeStyle=orthogonalEdgeStyle;rounded=1;orthogonalLoop=1;jettySize=auto;html=1;entryX=0;entryY=0.5;entryDx=0;entryDy=0;labelBackgroundColor=none;fontColor=default;strokeColor=#182E3E;" parent="1" source="30z2oHUKhD7mHLdZUFcd-29" target="30z2oHUKhD7mHLdZUFcd-35" edge="1">
          <mxGeometry relative="1" as="geometry" />
        </mxCell>
        <mxCell id="30z2oHUKhD7mHLdZUFcd-29" value="Data&lt;div&gt;Preprocessing&amp;nbsp;&lt;/div&gt;" style="rounded=1;whiteSpace=wrap;html=1;labelBackgroundColor=none;fillColor=#F5AB50;strokeColor=#909090;fontColor=#1A1A1A;" parent="1" vertex="1">
          <mxGeometry x="1440" y="390" width="120" height="60" as="geometry" />
        </mxCell>
        <mxCell id="IdJTG1rGeCHriK9BTK9C-10" style="edgeStyle=orthogonalEdgeStyle;rounded=1;orthogonalLoop=1;jettySize=auto;html=1;entryX=0.5;entryY=0;entryDx=0;entryDy=0;labelBackgroundColor=none;fontColor=default;strokeColor=#182E3E;" edge="1" parent="1" source="30z2oHUKhD7mHLdZUFcd-31" target="30z2oHUKhD7mHLdZUFcd-39">
          <mxGeometry relative="1" as="geometry">
            <Array as="points">
              <mxPoint x="1804" y="340" />
            </Array>
          </mxGeometry>
        </mxCell>
        <mxCell id="30z2oHUKhD7mHLdZUFcd-31" value="Data Cleaning" style="rounded=1;whiteSpace=wrap;html=1;labelBackgroundColor=none;fillColor=#F5AB50;strokeColor=#909090;fontColor=#1A1A1A;" parent="1" vertex="1">
          <mxGeometry x="1660" y="310" width="120" height="60" as="geometry" />
        </mxCell>
        <mxCell id="IdJTG1rGeCHriK9BTK9C-11" style="edgeStyle=orthogonalEdgeStyle;rounded=1;orthogonalLoop=1;jettySize=auto;html=1;entryX=0.5;entryY=0;entryDx=0;entryDy=0;labelBackgroundColor=none;fontColor=default;strokeColor=#182E3E;" edge="1" parent="1" source="30z2oHUKhD7mHLdZUFcd-33" target="30z2oHUKhD7mHLdZUFcd-39">
          <mxGeometry relative="1" as="geometry">
            <Array as="points">
              <mxPoint x="1804" y="420" />
            </Array>
          </mxGeometry>
        </mxCell>
        <mxCell id="30z2oHUKhD7mHLdZUFcd-33" value="Feature&lt;div&gt;&amp;nbsp;Engineering&amp;nbsp;&lt;/div&gt;" style="rounded=1;whiteSpace=wrap;html=1;labelBackgroundColor=none;fillColor=#F5AB50;strokeColor=#909090;fontColor=#1A1A1A;" parent="1" vertex="1">
          <mxGeometry x="1660" y="390" width="120" height="60" as="geometry" />
        </mxCell>
        <mxCell id="IdJTG1rGeCHriK9BTK9C-13" style="edgeStyle=orthogonalEdgeStyle;rounded=1;orthogonalLoop=1;jettySize=auto;html=1;entryX=0.5;entryY=0;entryDx=0;entryDy=0;exitX=0.998;exitY=0.48;exitDx=0;exitDy=0;exitPerimeter=0;labelBackgroundColor=none;fontColor=default;strokeColor=#182E3E;" edge="1" parent="1" source="30z2oHUKhD7mHLdZUFcd-35" target="30z2oHUKhD7mHLdZUFcd-39">
          <mxGeometry relative="1" as="geometry">
            <Array as="points">
              <mxPoint x="1780" y="500" />
              <mxPoint x="1804" y="500" />
            </Array>
          </mxGeometry>
        </mxCell>
        <mxCell id="30z2oHUKhD7mHLdZUFcd-35" value="Feature Scaling" style="rounded=1;whiteSpace=wrap;html=1;labelBackgroundColor=none;fillColor=#F5AB50;strokeColor=#909090;fontColor=#1A1A1A;" parent="1" vertex="1">
          <mxGeometry x="1660" y="470" width="120" height="60" as="geometry" />
        </mxCell>
        <mxCell id="IdJTG1rGeCHriK9BTK9C-1" style="edgeStyle=orthogonalEdgeStyle;rounded=1;orthogonalLoop=1;jettySize=auto;html=1;entryX=1;entryY=0.5;entryDx=0;entryDy=0;labelBackgroundColor=none;fontColor=default;strokeColor=#182E3E;" edge="1" parent="1" source="30z2oHUKhD7mHLdZUFcd-39" target="30z2oHUKhD7mHLdZUFcd-42">
          <mxGeometry relative="1" as="geometry" />
        </mxCell>
        <mxCell id="IdJTG1rGeCHriK9BTK9C-2" style="edgeStyle=orthogonalEdgeStyle;rounded=1;orthogonalLoop=1;jettySize=auto;html=1;entryX=1;entryY=0.5;entryDx=0;entryDy=0;labelBackgroundColor=none;fontColor=default;strokeColor=#182E3E;" edge="1" parent="1" source="30z2oHUKhD7mHLdZUFcd-39" target="30z2oHUKhD7mHLdZUFcd-49">
          <mxGeometry relative="1" as="geometry" />
        </mxCell>
        <mxCell id="IdJTG1rGeCHriK9BTK9C-3" style="edgeStyle=orthogonalEdgeStyle;rounded=1;orthogonalLoop=1;jettySize=auto;html=1;entryX=1;entryY=0.5;entryDx=0;entryDy=0;labelBackgroundColor=none;fontColor=default;strokeColor=#182E3E;" edge="1" parent="1" source="30z2oHUKhD7mHLdZUFcd-39" target="30z2oHUKhD7mHLdZUFcd-59">
          <mxGeometry relative="1" as="geometry" />
        </mxCell>
        <mxCell id="30z2oHUKhD7mHLdZUFcd-39" value="Modeling" style="rounded=1;whiteSpace=wrap;html=1;labelBackgroundColor=none;fillColor=#F5AB50;strokeColor=#909090;fontColor=#1A1A1A;" parent="1" vertex="1">
          <mxGeometry x="1744" y="564" width="120" height="56" as="geometry" />
        </mxCell>
        <mxCell id="IdJTG1rGeCHriK9BTK9C-8" style="edgeStyle=orthogonalEdgeStyle;rounded=1;orthogonalLoop=1;jettySize=auto;html=1;entryX=1;entryY=0.5;entryDx=0;entryDy=0;labelBackgroundColor=none;fontColor=default;strokeColor=#182E3E;" edge="1" parent="1" source="30z2oHUKhD7mHLdZUFcd-42" target="30z2oHUKhD7mHLdZUFcd-78">
          <mxGeometry relative="1" as="geometry" />
        </mxCell>
        <mxCell id="30z2oHUKhD7mHLdZUFcd-42" value="Time series Models" style="rounded=1;whiteSpace=wrap;html=1;labelBackgroundColor=none;fillColor=#F5AB50;strokeColor=#909090;fontColor=#1A1A1A;" parent="1" vertex="1">
          <mxGeometry x="1624" y="650" width="120" height="60" as="geometry" />
        </mxCell>
        <mxCell id="IdJTG1rGeCHriK9BTK9C-4" value="" style="edgeStyle=orthogonalEdgeStyle;rounded=1;orthogonalLoop=1;jettySize=auto;html=1;labelBackgroundColor=none;fontColor=default;strokeColor=#182E3E;" edge="1" parent="1" source="30z2oHUKhD7mHLdZUFcd-49" target="30z2oHUKhD7mHLdZUFcd-78">
          <mxGeometry relative="1" as="geometry" />
        </mxCell>
        <mxCell id="30z2oHUKhD7mHLdZUFcd-49" value="Machine Learning Models" style="rounded=1;whiteSpace=wrap;html=1;labelBackgroundColor=none;fillColor=#F5AB50;strokeColor=#909090;fontColor=#1A1A1A;" parent="1" vertex="1">
          <mxGeometry x="1624" y="740" width="120" height="60" as="geometry" />
        </mxCell>
        <mxCell id="IdJTG1rGeCHriK9BTK9C-9" style="edgeStyle=orthogonalEdgeStyle;rounded=1;orthogonalLoop=1;jettySize=auto;html=1;entryX=1;entryY=0.5;entryDx=0;entryDy=0;labelBackgroundColor=none;fontColor=default;strokeColor=#182E3E;" edge="1" parent="1" source="30z2oHUKhD7mHLdZUFcd-59" target="30z2oHUKhD7mHLdZUFcd-78">
          <mxGeometry relative="1" as="geometry" />
        </mxCell>
        <mxCell id="30z2oHUKhD7mHLdZUFcd-59" value="Deep Learning Models" style="rounded=1;whiteSpace=wrap;html=1;labelBackgroundColor=none;fillColor=#F5AB50;strokeColor=#909090;fontColor=#1A1A1A;" parent="1" vertex="1">
          <mxGeometry x="1624" y="830" width="120" height="60" as="geometry" />
        </mxCell>
        <mxCell id="30z2oHUKhD7mHLdZUFcd-76" style="edgeStyle=orthogonalEdgeStyle;rounded=1;orthogonalLoop=1;jettySize=auto;html=1;entryX=1;entryY=0.5;entryDx=0;entryDy=0;labelBackgroundColor=none;fontColor=default;strokeColor=#182E3E;" parent="1" source="30z2oHUKhD7mHLdZUFcd-78" target="30z2oHUKhD7mHLdZUFcd-80" edge="1">
          <mxGeometry relative="1" as="geometry" />
        </mxCell>
        <mxCell id="30z2oHUKhD7mHLdZUFcd-77" style="edgeStyle=orthogonalEdgeStyle;rounded=1;orthogonalLoop=1;jettySize=auto;html=1;entryX=1;entryY=0.5;entryDx=0;entryDy=0;labelBackgroundColor=none;fontColor=default;strokeColor=#182E3E;" parent="1" source="30z2oHUKhD7mHLdZUFcd-78" target="30z2oHUKhD7mHLdZUFcd-82" edge="1">
          <mxGeometry relative="1" as="geometry" />
        </mxCell>
        <mxCell id="30z2oHUKhD7mHLdZUFcd-78" value="Evaluation And Optimisation" style="rounded=1;whiteSpace=wrap;html=1;labelBackgroundColor=none;fillColor=#F5AB50;strokeColor=#909090;fontColor=#1A1A1A;" parent="1" vertex="1">
          <mxGeometry x="1460" y="740" width="120" height="60" as="geometry" />
        </mxCell>
        <mxCell id="IdJTG1rGeCHriK9BTK9C-5" style="edgeStyle=orthogonalEdgeStyle;rounded=1;orthogonalLoop=1;jettySize=auto;html=1;entryX=1;entryY=0.5;entryDx=0;entryDy=0;labelBackgroundColor=none;fontColor=default;strokeColor=#182E3E;" edge="1" parent="1" source="30z2oHUKhD7mHLdZUFcd-80" target="30z2oHUKhD7mHLdZUFcd-83">
          <mxGeometry relative="1" as="geometry" />
        </mxCell>
        <mxCell id="30z2oHUKhD7mHLdZUFcd-80" value="Metrics&amp;nbsp;" style="rounded=1;whiteSpace=wrap;html=1;labelBackgroundColor=none;fillColor=#F5AB50;strokeColor=#909090;fontColor=#1A1A1A;" parent="1" vertex="1">
          <mxGeometry x="1290" y="700" width="120" height="60" as="geometry" />
        </mxCell>
        <mxCell id="IdJTG1rGeCHriK9BTK9C-7" style="edgeStyle=orthogonalEdgeStyle;rounded=1;orthogonalLoop=1;jettySize=auto;html=1;entryX=1;entryY=0.5;entryDx=0;entryDy=0;labelBackgroundColor=none;fontColor=default;strokeColor=#182E3E;" edge="1" parent="1" source="30z2oHUKhD7mHLdZUFcd-82" target="30z2oHUKhD7mHLdZUFcd-83">
          <mxGeometry relative="1" as="geometry" />
        </mxCell>
        <mxCell id="30z2oHUKhD7mHLdZUFcd-82" value="Cross Validation and tuning" style="rounded=1;whiteSpace=wrap;html=1;labelBackgroundColor=none;fillColor=#F5AB50;strokeColor=#909090;fontColor=#1A1A1A;" parent="1" vertex="1">
          <mxGeometry x="1290" y="780" width="120" height="60" as="geometry" />
        </mxCell>
        <mxCell id="30z2oHUKhD7mHLdZUFcd-83" value="Prediction" style="rounded=1;whiteSpace=wrap;html=1;labelBackgroundColor=none;fillColor=#F5AB50;strokeColor=#909090;fontColor=#1A1A1A;" parent="1" vertex="1">
          <mxGeometry x="1120" y="740" width="120" height="60" as="geometry" />
        </mxCell>
      </root>
    </mxGraphModel>
  </diagram>
</mxfile>
